<svg width="79" height="85" viewBox="0 0 79 85" fill="none" xmlns="http://www.w3.org/2000/svg">
<path d="M74.375 63.75H77.25V69.5H1.75V63.75H4.625H5.625V62.75V35.7451C5.625 16.9657 20.7967 1.75 39.5 1.75C58.2033 1.75 73.375 16.9657 73.375 35.7451V62.75V63.75H74.375ZM11.375 62.75V63.75H12.375H66.625H67.625V62.75V35.7451C67.625 20.1504 55.0372 7.5 39.5 7.5C23.9628 7.5 11.375 20.1504 11.375 35.7451V62.75ZM48.1298 75.375C47.9055 77.3109 47.0347 79.1262 45.643 80.518C44.0138 82.1472 41.8041 83.0625 39.5 83.0625C37.1959 83.0625 34.9862 82.1472 33.357 80.518C31.9653 79.1262 31.0945 77.3109 30.8702 75.375H48.1298Z" fill="#484848" stroke="white" stroke-width="2"/>
</svg>
