<svg width="22" height="21" viewBox="0 0 22 21" fill="none" xmlns="http://www.w3.org/2000/svg">
<path d="M11.0078 20.7208C10.6111 20.7208 10.2119 20.5808 9.8936 20.2983L6.77027 17.6675H4.33443C2.4961 17.6675 1.0011 16.1725 1.0011 14.3342V4.33333C1.00027 2.495 2.49527 1 4.3336 1H17.6669C19.5053 1 21.0003 2.495 21.0003 4.33333V14.3333C21.0003 16.1717 19.5053 17.6667 17.6669 17.6667H15.2903L12.0844 20.3167C11.7828 20.585 11.5 20.7208 11.0069 20.72C11.0069 20.72 11.4044 20.7208 11.0078 20.7208ZM4.3336 2.66667C3.41443 2.66667 2.66693 3.41417 2.66693 4.33333V14.3333C2.66693 15.2525 3.41443 16 4.3336 16H7.07443C7.2711 16 7.4611 16.0692 7.61193 16.1958L10.9844 19.0375L14.4594 16.1908C14.6094 16.0675 14.7969 16 14.9911 16H17.6678C18.5869 16 19.3344 15.2525 19.3344 14.3333V4.33333C19.3344 3.41417 18.5869 2.66667 17.6678 2.66667H4.3336Z" fill="#6687FC" stroke="#6687FC" stroke-width="0.5"/>
</svg>
