<svg width="36" height="33" viewBox="0 0 36 33" fill="none" xmlns="http://www.w3.org/2000/svg">
<path d="M3.102 7.53775L16.4145 19.7423C16.8083 20.1035 17.3344 20.318 17.8908 20.3441C18.4472 20.3703 18.9944 20.2063 19.4265 19.8839L19.5975 19.7423L32.901 7.546C32.9445 7.69725 32.973 7.85125 32.988 8.00938L33 8.25V24.75C33.0002 25.4438 32.7144 26.112 32.1998 26.6208C31.6851 27.1295 30.9797 27.4411 30.225 27.4931L30 27.5H6C5.24314 27.5002 4.51415 27.2382 3.95918 26.7664C3.40421 26.2947 3.06426 25.6481 3.0075 24.9563L3 24.75V8.25C3 8.085 3.015 7.9255 3.045 7.76875L3.102 7.53775ZM30 5.5C30.1815 5.5 30.36 5.51375 30.5325 5.54263L30.7875 5.59625L18.0075 17.3113L5.223 5.5935C5.388 5.55225 5.559 5.52475 5.733 5.511L6 5.5H30Z" fill="#6385FB"/>
</svg>
