<svg width="19" height="18" viewBox="0 0 19 18" fill="none" xmlns="http://www.w3.org/2000/svg">
<path d="M8.5 3C8.76522 3 9.01957 3.10536 9.20711 3.29289C9.39464 3.48043 9.5 3.73478 9.5 4C9.5 4.26522 9.39464 4.51957 9.20711 4.70711C9.01957 4.89464 8.76522 5 8.5 5H2.5V16H13.5V10C13.5 9.73478 13.6054 9.48043 13.7929 9.29289C13.9804 9.10536 14.2348 9 14.5 9C14.7652 9 15.0196 9.10536 15.2071 9.29289C15.3946 9.48043 15.5 9.73478 15.5 10V16C15.5 16.5304 15.2893 17.0391 14.9142 17.4142C14.5391 17.7893 14.0304 18 13.5 18H2.5C1.96957 18 1.46086 17.7893 1.08579 17.4142C0.710714 17.0391 0.5 16.5304 0.5 16V5C0.5 4.46957 0.710714 3.96086 1.08579 3.58579C1.46086 3.21071 1.96957 3 2.5 3H8.5ZM17.5 0C17.7652 0 18.0196 0.105357 18.2071 0.292893C18.3946 0.48043 18.5 0.734784 18.5 1V6C18.5 6.26522 18.3946 6.51957 18.2071 6.70711C18.0196 6.89464 17.7652 7 17.5 7C17.2348 7 16.9804 6.89464 16.7929 6.70711C16.6054 6.51957 16.5 6.26522 16.5 6V3.414L8.207 11.707C8.0184 11.8892 7.7658 11.99 7.5036 11.9877C7.2414 11.9854 6.99059 11.8802 6.80518 11.6948C6.61977 11.5094 6.5146 11.2586 6.51233 10.9964C6.51005 10.7342 6.61084 10.4816 6.793 10.293L15.086 2H12.5C12.2348 2 11.9804 1.89464 11.7929 1.70711C11.6054 1.51957 11.5 1.26522 11.5 1C11.5 0.734784 11.6054 0.48043 11.7929 0.292893C11.9804 0.105357 12.2348 0 12.5 0H17.5Z" fill="#0F43FB"/>
</svg>
