<svg width="122" height="55" viewBox="0 0 122 55" fill="none" xmlns="http://www.w3.org/2000/svg">
<g clip-path="url(#clip0_1_54)">
<path d="M25.6317 18.5951C25.977 18.5951 26.2569 18.3142 26.2569 17.9676C26.2569 17.621 25.977 17.3401 25.6317 17.3401C25.2864 17.3401 25.0065 17.621 25.0065 17.9676C25.0065 18.3142 25.2864 18.5951 25.6317 18.5951Z" fill="#273A7A"/>
<path d="M25.6299 18.9568C25.4067 18.9568 25.1935 18.8821 25.0166 18.7408C24.5923 18.3997 24.5239 17.776 24.8617 17.3502C25.0246 17.1443 25.2599 17.0141 25.5213 16.9848C25.7827 16.9606 26.0401 17.0292 26.2473 17.1947C26.6716 17.5348 26.74 18.1575 26.4021 18.5844V18.5854C26.2372 18.7913 26.0039 18.9215 25.7425 18.9508C25.7043 18.9548 25.6661 18.9568 25.6299 18.9568ZM25.6319 17.7014C25.6219 17.7014 25.6118 17.7024 25.6018 17.7034C25.5314 17.7115 25.469 17.7458 25.4248 17.8013C25.3343 17.9163 25.3524 18.0839 25.467 18.1757C25.5776 18.2665 25.7486 18.2493 25.839 18.1343C25.9295 18.0193 25.9114 17.8517 25.7968 17.7599C25.7506 17.7216 25.6922 17.7014 25.6319 17.7014H25.6319Z" fill="#273A7A"/>
<path d="M33.7736 34.4459C34.0459 34.4459 34.2667 34.2243 34.2667 33.9509C34.2667 33.6775 34.0459 33.4559 33.7736 33.4559C33.5012 33.4559 33.2804 33.6775 33.2804 33.9509C33.2804 34.2243 33.5012 34.4459 33.7736 34.4459Z" fill="#273A7A"/>
<path d="M33.7704 34.8073C33.5774 34.8073 33.3924 34.7427 33.2415 34.6195C33.0626 34.4772 32.9499 34.2734 32.9258 34.0443C32.8997 33.8172 32.964 33.5942 33.1068 33.4156C33.2476 33.2379 33.4507 33.1249 33.6779 33.0997C33.8951 33.0694 34.1284 33.138 34.3073 33.2813C34.4843 33.4247 34.5969 33.6285 34.621 33.8556C34.6472 34.0837 34.5828 34.3077 34.4401 34.4863C34.2973 34.665 34.0942 34.777 33.8689 34.8022C33.8348 34.8062 33.8026 34.8073 33.7704 34.8073H33.7704ZM33.7785 33.8223C33.7362 33.8223 33.694 33.8374 33.6699 33.8667C33.6417 33.903 33.6397 33.9403 33.6417 33.9646C33.6438 33.9857 33.6538 34.0251 33.692 34.0554C33.7282 34.0857 33.7705 34.0826 33.7886 34.0837C33.8087 34.0816 33.8469 34.0715 33.877 34.0342V34.0322C33.9173 33.9837 33.9052 33.8848 33.8569 33.8455C33.8368 33.8303 33.8087 33.8223 33.7785 33.8223V33.8223Z" fill="#273A7A"/>
<path d="M20.6735 7.46925C21.1209 7.46925 21.4837 7.10518 21.4837 6.65607C21.4837 6.20697 21.1209 5.8429 20.6735 5.8429C20.226 5.8429 19.8633 6.20697 19.8633 6.65607C19.8633 7.10518 20.226 7.46925 20.6735 7.46925Z" fill="#273A7A"/>
<path d="M20.6708 7.83133C20.4074 7.83133 20.152 7.74151 19.9428 7.57399C19.6995 7.37921 19.5467 7.10068 19.5105 6.78884C19.4763 6.47699 19.5648 6.1692 19.7598 5.92293C19.9529 5.67871 20.2304 5.5243 20.5421 5.48898C20.8337 5.45264 21.1575 5.54044 21.4048 5.73826C21.6481 5.93304 21.801 6.21157 21.8372 6.52341C21.8714 6.83526 21.7829 7.14305 21.5878 7.38932C21.3928 7.63455 21.1132 7.78896 20.8035 7.82327C20.7593 7.82831 20.7151 7.83135 20.6708 7.83135V7.83133ZM20.6748 6.2045C20.6567 6.2045 20.6407 6.20551 20.6226 6.20752C20.5039 6.22064 20.3973 6.28019 20.3229 6.37404C20.2465 6.46992 20.2143 6.588 20.2264 6.70809C20.2405 6.82718 20.2988 6.93416 20.3933 7.00883C20.4858 7.08249 20.6065 7.11277 20.7231 7.10471C20.8417 7.09159 20.9503 7.03204 21.0247 6.93719C21.0991 6.84235 21.1333 6.72425 21.1213 6.60416C21.1072 6.48507 21.0489 6.37809 20.9544 6.30342C20.8739 6.23883 20.7754 6.20452 20.6748 6.20452V6.2045Z" fill="#273A7A"/>
<path d="M37.3518 22.3573C37.7337 22.3573 38.0434 22.0465 38.0434 21.6632C38.0434 21.2799 37.7337 20.9691 37.3518 20.9691C36.9699 20.9691 36.6603 21.2799 36.6603 21.6632C36.6603 22.0465 36.9699 22.3573 37.3518 22.3573Z" fill="#273A7A"/>
<path d="M37.35 22.7181C37.1208 22.7181 36.8895 22.6434 36.6944 22.488C36.242 22.1247 36.1675 21.4596 36.5295 21.0055C36.8955 20.5503 37.5531 20.4746 38.0076 20.838C38.4601 21.2002 38.5365 21.8653 38.1745 22.3215V22.3225C37.9674 22.5829 37.6597 22.7181 37.35 22.7181H37.35ZM37.352 21.3315C37.2555 21.3315 37.159 21.3738 37.0926 21.4566C36.98 21.5989 37.0021 21.8088 37.1449 21.9229C37.2857 22.0339 37.4948 22.0137 37.6114 21.8714C37.7241 21.7271 37.7019 21.5172 37.5571 21.4031C37.4968 21.3547 37.4244 21.3315 37.352 21.3315L37.352 21.3315Z" fill="#273A7A"/>
<path d="M13.3499 14.5553C13.5685 14.5553 13.7457 14.3774 13.7457 14.1581C13.7457 13.9387 13.5685 13.7609 13.3499 13.7609C13.1313 13.7609 12.9542 13.9387 12.9542 14.1581C12.9542 14.3774 13.1313 14.5553 13.3499 14.5553Z" fill="#273A7A"/>
<path d="M13.3488 14.7847C13.208 14.7847 13.0733 14.7373 12.9607 14.6484C12.83 14.5425 12.7475 14.3931 12.7294 14.2266C12.7113 14.0601 12.7596 13.8966 12.8642 13.7674C13.0793 13.5 13.4715 13.4566 13.7389 13.6675C13.8697 13.7725 13.9501 13.9218 13.9702 14.0883C13.9883 14.2549 13.94 14.4183 13.8375 14.5485C13.7349 14.6787 13.5881 14.7605 13.4232 14.7796C13.3991 14.7827 13.3729 14.7847 13.3488 14.7847ZM13.3508 13.9894C13.3006 13.9894 13.2523 14.0116 13.2201 14.054C13.192 14.0883 13.1779 14.1317 13.1839 14.1761C13.1879 14.2215 13.2101 14.2619 13.2462 14.2902C13.2804 14.3164 13.3106 14.3356 13.3709 14.3255C13.4132 14.3205 13.4534 14.2983 13.4795 14.2649V14.2629C13.5378 14.1902 13.5258 14.0843 13.4534 14.0257C13.4232 14.0015 13.387 13.9894 13.3508 13.9894L13.3508 13.9894Z" fill="#273A7A"/>
<path d="M9.53315 6.08388C9.90836 6.08388 10.2125 5.77858 10.2125 5.40199C10.2125 5.02539 9.90836 4.72009 9.53315 4.72009C9.15793 4.72009 8.85376 5.02539 8.85376 5.40199C8.85376 5.77858 9.15793 6.08388 9.53315 6.08388Z" fill="white"/>
<path d="M43.1095 54.3969H0V22.3598C0 10.431 9.66881 0.726562 21.5537 0.726562C33.4387 0.726562 43.1095 10.431 43.1095 22.3598V54.3969ZM2.88375 51.5045H40.2257V22.3598C40.2257 12.0266 31.85 3.61896 21.5537 3.61896C11.2595 3.61892 2.88375 12.0266 2.88375 22.3598V51.5045V51.5045Z" fill="#273A7A"/>
<path d="M34.484 45.6744H1.91339V48.5794H34.484V45.6744Z" fill="#273A7A"/>
<path d="M28.7623 39.8645H2.70697V42.7694H28.7623V39.8645Z" fill="#273A7A"/>
<path d="M23.0405 34.0547H2.19464V36.9596H23.0405V34.0547Z" fill="#273A7A"/>
<path d="M17.3186 28.141H1.61023V31.0459H17.3186V28.141Z" fill="#273A7A"/>
<path d="M11.5969 22.3572H1.85345V25.2621H11.5969V22.3572Z" fill="#273A7A"/>
<path d="M5.87511 16.5734H1.44116V19.4783H5.87511V16.5734Z" fill="#273A7A"/>
<path d="M56.4725 4.61499C60.1083 4.61499 60.2994 6.54559 60.2994 8.28444C60.2994 10.3109 59.6136 11.305 57.8238 11.5341C59.7102 11.6481 60.5668 12.8339 60.5668 15.1076C60.5668 17.1149 60.4321 19.1212 56.567 19.1212H48.8931V4.61499H56.4725ZM51.1796 10.7883H56.0723C57.5765 10.7883 58.0531 10.1767 58.0531 8.76281V8.49538C58.0531 7.34893 57.8238 6.52643 56.0924 6.52643H51.1796V10.7883ZM51.1796 17.2098H56.1668C58.1858 17.2098 58.2623 16.3116 58.2623 15.1076V14.592C58.2623 13.063 57.671 12.4323 56.0723 12.4323H51.1796V17.2098Z" fill="#273A7A" stroke="#273A7A" stroke-width="0.0452228" stroke-miterlimit="10"/>
<path d="M69.8877 4.61499C72.876 4.61499 74.3621 5.37997 74.3621 8.49536V8.93436C74.3621 11.3615 73.4471 12.0689 71.7338 12.298C73.2963 12.4706 74.2857 12.8712 74.2857 14.9744V16.5599C74.2857 17.7073 74.3621 18.4138 74.515 19.1212H72.2868C72.134 18.548 72.0575 17.7265 72.0575 16.7708V15.1843C72.0575 13.7886 71.5628 13.2729 69.7168 13.2729H65.3368V19.1212H63.1268V4.61499H69.8877ZM65.3368 11.4957H69.7168C71.5246 11.4957 72.0575 10.8458 72.0575 9.24015V8.72445C72.0575 7.13799 71.41 6.54559 69.7912 6.54559H65.3368V11.4957H65.3368Z" fill="#273A7A" stroke="#273A7A" stroke-width="0.0452228" stroke-miterlimit="10"/>
<path d="M79.3977 4.61499V19.1212H77.1333V4.61499H79.3977Z" fill="#273A7A" stroke="#273A7A" stroke-width="0.0452228" stroke-miterlimit="10"/>
<path d="M89.4465 4.61499C93.1024 4.61499 94.1502 6.29732 94.1502 10.98V12.7572C94.1502 17.4389 93.1024 19.1212 89.4465 19.1212H82.3819V4.61499H89.4465ZM84.6865 17.1906H89.3319C91.3328 17.1906 91.8657 16.0442 91.8657 13.2154V10.5208C91.8657 7.69204 91.3328 6.54559 89.3319 6.54559H84.6865V17.1906Z" fill="#273A7A" stroke="#273A7A" stroke-width="0.0452228" stroke-miterlimit="10"/>
<path d="M108.404 9.22094V9.43186H106.29C106.309 9.35516 106.309 9.22094 106.309 9.14525C106.29 7.25299 105.814 6.31647 102.711 6.31647C99.3023 6.31647 98.9584 7.48208 98.9584 10.655V12.9863C98.9584 15.9674 99.3586 17.1714 102.043 17.1714H106.367V13.3304H103.091V11.4573H108.519V19.1212H101.931C97.2832 19.1212 96.6558 17.3248 96.6558 11.859C96.6558 6.29729 97.1887 4.40503 102.729 4.40503C107.68 4.40503 108.404 5.95314 108.404 9.22094Z" fill="#273A7A" stroke="#273A7A" stroke-width="0.0452228" stroke-miterlimit="10"/>
<path d="M121.188 4.61499V6.66065H113.534V10.5592H120.999V12.4131H113.534V17.0958H121.246V19.1212H111.362V4.61499H121.188Z" fill="#273A7A" stroke="#273A7A" stroke-width="0.0452228" stroke-miterlimit="10"/>
<path d="M58.7186 22.2155V24.2036H54.5298V36.7217H52.2453V24.2036H48.0564V22.2155H58.7186H58.7186Z" fill="#273A7A" stroke="#273A7A" stroke-width="0.0452228" stroke-miterlimit="10"/>
<path d="M72.2123 29.4786C72.2123 35.116 71.6794 36.8932 66.101 36.8932C60.4642 36.8932 59.9695 35.116 59.9695 29.4786C59.9695 23.8402 60.4642 22.0055 66.101 22.0055C71.6794 22.0055 72.2123 23.8402 72.2123 29.4786ZM62.2539 28.3503V30.396C62.2539 33.6446 62.6159 35.0211 66.101 35.0211C69.5277 35.0211 69.9077 33.6638 69.9077 30.4151V28.3503C69.9077 25.2541 69.5277 23.9169 66.101 23.9169C62.6159 23.9169 62.2539 25.2541 62.2539 28.3503Z" fill="#273A7A" stroke="#273A7A" stroke-width="0.0452228" stroke-miterlimit="10"/>
<path d="M58.7187 39.8169V41.8626H51.0649V45.7611H58.5297V47.615H51.0649V52.2977H58.777V54.3231H48.8931V39.8169H58.7187Z" fill="#273A7A" stroke="#273A7A" stroke-width="0.0452228" stroke-miterlimit="10"/>
<path d="M68.6509 39.8169L73.7729 54.3231H71.5065L70.326 50.8636H64.1945L62.9759 54.3231H60.7296L66.0225 39.8169H68.6509H68.6509ZM64.8421 49.0672H69.7167L67.3176 42.0533L64.8421 49.0672Z" fill="#273A7A" stroke="#273A7A" stroke-width="0.0452228" stroke-miterlimit="10"/>
<path d="M82.6935 39.8169C85.6819 39.8169 87.168 40.5819 87.168 43.6973V44.1363C87.168 46.5634 86.253 47.2708 84.5396 47.4999C86.1022 47.6725 87.0916 48.0731 87.0916 50.1763V51.7618C87.0916 52.9093 87.168 53.6157 87.3208 54.3231H85.0926C84.9398 53.7499 84.8634 52.9284 84.8634 51.9727V50.3862C84.8634 48.9905 84.3687 48.4748 82.5226 48.4748H78.1427V54.3231H75.9326V39.8169H82.6935ZM78.1427 46.6976H82.5226C84.3305 46.6976 84.8634 46.0477 84.8634 44.4421V43.9264C84.8634 42.3399 84.2159 41.7475 82.597 41.7475H78.1427V46.6976H78.1427Z" fill="#273A7A" stroke="#273A7A" stroke-width="0.0452228" stroke-miterlimit="10"/>
<path d="M99.1918 39.8169V41.805H95.003V54.3231H92.7185V41.805H88.5296V39.8169H99.1918H99.1918Z" fill="#273A7A" stroke="#273A7A" stroke-width="0.0452228" stroke-miterlimit="10"/>
<path d="M103.505 39.8169V45.8186H110.723V39.8169H113.025V54.3231H110.723V47.7492H103.505V54.3231H101.201V39.8169H103.505Z" fill="#273A7A" stroke="#273A7A" stroke-width="0.0452228" stroke-miterlimit="10"/>
</g>
<defs>
<clipPath id="clip0_1_54">
<rect width="121.31" height="53.6703" fill="white" transform="translate(0 0.726562)"/>
</clipPath>
</defs>
</svg>
