<svg width="22" height="22" viewBox="0 0 22 22" fill="none" xmlns="http://www.w3.org/2000/svg">
<path d="M8.29625 21.5H1.36625C1.13651 21.5 0.916172 21.4032 0.753719 21.2309C0.591265 21.0586 0.5 20.8249 0.5 20.5813C0.5 20.3376 0.591265 20.1039 0.753719 19.9316C0.916172 19.7593 1.13651 19.6625 1.36625 19.6625H8.29625C8.52599 19.6625 8.74633 19.7593 8.90878 19.9316C9.07123 20.1039 9.1625 20.3376 9.1625 20.5813C9.1625 20.8249 9.07123 21.0586 8.90878 21.2309C8.74633 21.4032 8.52599 21.5 8.29625 21.5Z" fill="white"/>
<path d="M6.70156 18.0875H1.38594C1.15097 18.0875 0.925631 17.9907 0.759485 17.8184C0.59334 17.6461 0.5 17.4124 0.5 17.1688C0.5 16.9251 0.59334 16.6914 0.759485 16.5191C0.925631 16.3468 1.15097 16.25 1.38594 16.25H6.70156C6.93653 16.25 7.16187 16.3468 7.32801 16.5191C7.49416 16.6914 7.5875 16.9251 7.5875 17.1688C7.5875 17.4124 7.49416 17.6461 7.32801 17.8184C7.16187 17.9907 6.93653 18.0875 6.70156 18.0875Z" fill="white"/>
<path d="M4.875 14.4125H1.375C1.14294 14.4125 0.920376 14.3295 0.756282 14.1818C0.592187 14.0342 0.5 13.8339 0.5 13.625C0.5 13.4161 0.592187 13.2158 0.756282 13.0681C0.920376 12.9205 1.14294 12.8375 1.375 12.8375H4.875C5.10706 12.8375 5.32962 12.9205 5.49372 13.0681C5.65781 13.2158 5.75 13.4161 5.75 13.625C5.75 13.8339 5.65781 14.0342 5.49372 14.1818C5.32962 14.3295 5.10706 14.4125 4.875 14.4125Z" fill="white"/>
<path d="M11.8569 21.4991C11.6244 21.5095 11.3973 21.4271 11.2256 21.27C11.0539 21.113 10.9516 20.8942 10.9412 20.6618C10.9309 20.4293 11.0133 20.2023 11.1704 20.0307C11.3275 19.859 11.5464 19.7568 11.7788 19.7464C13.4378 19.5947 15.0192 18.9735 16.3378 17.9556C17.6564 16.9378 18.6576 15.5654 19.224 13.9992C19.7905 12.4331 19.8989 10.738 19.5364 9.11246C19.1739 7.48695 18.3557 5.99835 17.1774 4.821C15.9991 3.64365 14.5097 2.8263 12.8835 2.46469C11.2573 2.10309 9.56174 2.21218 7.99535 2.77921C6.42896 3.34624 5.05661 4.34772 4.03905 5.66636C3.02149 6.98499 2.40085 8.56618 2.24982 10.2247C2.22889 10.4562 2.11684 10.6699 1.9383 10.8188C1.75976 10.9677 1.52936 11.0396 1.29779 11.0187C1.06622 10.9978 0.852452 10.8858 0.703505 10.7073C0.554557 10.5288 0.482635 10.2985 0.50356 10.067C0.748044 7.37069 2.0233 4.87253 4.06387 3.09252C6.10443 1.31251 8.75309 0.3878 11.4585 0.510883C14.1639 0.633966 16.7176 1.79536 18.588 3.7533C20.4584 5.71124 21.5014 8.31487 21.4999 11.0222C21.5133 13.6499 20.5368 16.1863 18.7647 18.1269C16.9925 20.0675 14.5546 21.2702 11.9358 21.4956C11.9095 21.4983 11.8823 21.4991 11.8569 21.4991Z" fill="white"/>
<path d="M11.0546 5.75C10.8313 5.75 10.6171 5.84138 10.4592 6.00403C10.3012 6.16668 10.2125 6.38729 10.2125 6.61732V10.9539C10.2126 11.1839 10.3013 11.4045 10.4593 11.5671L12.9855 14.169C13.1443 14.327 13.357 14.4144 13.5778 14.4125C13.7986 14.4105 14.0098 14.3193 14.1659 14.1585C14.322 13.9977 14.4106 13.7801 14.4125 13.5527C14.4144 13.3253 14.3295 13.1062 14.1761 12.9427L11.8967 10.5948V6.61732C11.8967 6.38729 11.8079 6.16668 11.65 6.00403C11.4921 5.84138 11.2779 5.75 11.0546 5.75Z" fill="white"/>
</svg>
