<svg width="35" height="35" viewBox="0 0 35 35" fill="none" xmlns="http://www.w3.org/2000/svg">
<path d="M17.5 22.875H5.85417C4.66622 22.875 3.52692 22.4031 2.68692 21.5631C1.84691 20.7231 1.375 19.5838 1.375 18.3958C1.375 17.2079 1.84691 16.0686 2.68692 15.2286C3.52692 14.3886 4.66622 13.9167 5.85417 13.9167H6.75M22.875 17.5V29.1458C22.875 30.3338 22.4031 31.4731 21.5631 32.3131C20.7231 33.1531 19.5838 33.625 18.3958 33.625C17.2079 33.625 16.0686 33.1531 15.2286 32.3131C14.3886 31.4731 13.9167 30.3338 13.9167 29.1458V28.25M17.5 12.125H29.1458C30.3338 12.125 31.4731 12.5969 32.3131 13.4369C33.1531 14.2769 33.625 15.4162 33.625 16.6042C33.625 17.7921 33.1531 18.9314 32.3131 19.7714C31.4731 20.6114 30.3338 21.0833 29.1458 21.0833H28.25M12.125 17.5V5.85417C12.125 4.66622 12.5969 3.52692 13.4369 2.68692C14.2769 1.84691 15.4162 1.375 16.6042 1.375C17.7921 1.375 18.9314 1.84691 19.7714 2.68692C20.6114 3.52692 21.0833 4.66622 21.0833 5.85417V6.75" stroke="white" stroke-width="2" stroke-linecap="round" stroke-linejoin="round"/>
</svg>
