<svg width="18" height="18" viewBox="0 0 18 18" fill="none" xmlns="http://www.w3.org/2000/svg">
<path d="M9 1.125L2.25 3.375V10.125C2.25 13.8533 5.27168 16.875 9 16.875C12.7283 16.875 15.75 13.8533 15.75 10.125V3.375L9 1.125ZM14.4844 10.125C14.4844 13.1537 12.0287 15.6094 9 15.6094C5.97129 15.6094 3.51562 13.1537 3.51562 10.125V4.32422L9 2.39062L14.4844 4.32422V10.125Z" fill="black"/>
<path d="M6.65155 8.35137C6.5929 8.29245 6.52318 8.24569 6.44641 8.21379C6.36964 8.18189 6.28732 8.16547 6.20419 8.16547C6.12105 8.16547 6.03873 8.18189 5.96196 8.21379C5.88519 8.24569 5.81548 8.29245 5.75682 8.35137C5.6979 8.41002 5.65115 8.47973 5.61925 8.55651C5.58735 8.63328 5.57092 8.71559 5.57092 8.79873C5.57092 8.88187 5.58735 8.96418 5.61925 9.04096C5.65115 9.11773 5.6979 9.18744 5.75682 9.24609L8.03143 11.5207L8.06835 11.5576C8.12383 11.6132 8.18972 11.6573 8.26226 11.6874C8.33481 11.7175 8.41257 11.733 8.4911 11.733C8.56963 11.733 8.6474 11.7175 8.71994 11.6874C8.79248 11.6573 8.85838 11.6132 8.91386 11.5576L12.8426 7.62891C12.8981 7.57343 12.9422 7.50753 12.9723 7.43499C13.0024 7.36245 13.0179 7.28469 13.0179 7.20615C13.0179 7.12762 13.0024 7.04986 12.9723 6.97732C12.9422 6.90477 12.8981 6.83888 12.8426 6.7834L12.7933 6.73418C12.7379 6.6786 12.672 6.6345 12.5994 6.60441C12.5269 6.57432 12.4491 6.55884 12.3706 6.55884C12.2921 6.55884 12.2143 6.57432 12.1418 6.60441C12.0692 6.6345 12.0033 6.6786 11.9478 6.73418L8.49022 10.19L6.65155 8.35137Z" fill="black"/>
</svg>
