<svg width="33" height="33" viewBox="0 0 33 33" fill="none" xmlns="http://www.w3.org/2000/svg">
<path fill-rule="evenodd" clip-rule="evenodd" d="M16.5 0C7.38788 0 0 7.38788 0 16.5C0 25.6121 7.38788 33 16.5 33C25.6121 33 33 25.6121 33 16.5C33 7.38788 25.6121 0 16.5 0ZM24.1478 11.2214C23.9002 13.8298 22.825 20.1616 22.2791 23.0835C22.0481 24.321 21.5916 24.7349 21.1516 24.7747C20.1933 24.8627 19.4659 24.1409 18.5378 23.5331C17.0858 22.5816 16.2649 21.989 14.8555 21.0595C13.2261 19.9856 14.2821 19.3958 15.2103 18.4319C15.4536 18.1789 19.6749 14.3385 19.7574 13.9906C19.767 13.9466 19.778 13.7844 19.6804 13.6991C19.5828 13.6139 19.4411 13.6427 19.3394 13.6661C19.1936 13.6991 16.874 15.2323 12.3791 18.2655C11.7205 18.7179 11.1238 18.9379 10.5889 18.9269C10.0004 18.9145 8.86738 18.5941 8.0245 18.3191C6.99188 17.9836 6.16963 17.8049 6.24113 17.2356C6.27825 16.9386 6.68663 16.6348 7.46763 16.324C12.2774 14.2285 15.4852 12.8466 17.0899 12.1784C21.6728 10.2726 22.6243 9.94125 23.2458 9.93025C24.024 9.91925 24.211 10.5614 24.1478 11.2214Z" fill="#6385FB"/>
</svg>
