<svg width="35" height="28" viewBox="0 0 35 28" fill="none" xmlns="http://www.w3.org/2000/svg">
<path d="M34.4974 3.50004C33.2462 4.05421 31.8974 4.41837 30.4999 4.59254C31.9299 3.75337 33.0349 2.42337 33.5549 0.824207C32.2062 1.61587 30.7112 2.17004 29.1349 2.48671C27.8512 1.12504 26.0474 0.333374 23.9999 0.333374C20.1812 0.333374 17.0612 3.37337 17.0612 7.12587C17.0612 7.66421 17.1262 8.18671 17.2399 8.67754C11.4549 8.39254 6.30369 5.68504 2.87494 1.58421C2.27369 2.58171 1.93244 3.75337 1.93244 4.98837C1.93244 7.34754 3.15119 9.43754 5.03619 10.625C3.88244 10.625 2.80994 10.3084 1.86744 9.83337V9.88087C1.86744 13.1742 4.27244 15.9292 7.45744 16.5467C6.43487 16.8194 5.36135 16.8573 4.32119 16.6575C4.76255 18.0073 5.62694 19.1884 6.79284 20.0347C7.95875 20.881 9.36754 21.3501 10.8212 21.3759C8.35709 23.2766 5.30269 24.304 2.15994 24.2892C1.60744 24.2892 1.05494 24.2575 0.502441 24.1942C3.58994 26.1259 7.26244 27.25 11.1949 27.25C23.9999 27.25 31.0362 16.895 31.0362 7.91754C31.0362 7.61671 31.0362 7.33171 31.0199 7.03087C32.3849 6.08087 33.5549 4.87754 34.4974 3.50004Z" fill="#6385FB"/>
</svg>
