<svg width="20" height="20" viewBox="0 0 20 20" fill="none" xmlns="http://www.w3.org/2000/svg">
<path d="M10.0078 19.7208C9.6111 19.7208 9.21193 19.5808 8.8936 19.2983L5.77027 16.6675H3.33443C1.4961 16.6675 0.00109898 15.1725 0.00109898 13.3342V3.33333C0.000265648 1.495 1.49527 0 3.3336 0H16.6669C18.5053 0 20.0003 1.495 20.0003 3.33333V13.3333C20.0003 15.1717 18.5053 16.6667 16.6669 16.6667H14.2903L11.0844 19.3167C10.7828 19.585 10.3969 19.72 10.0069 19.72L10.0078 19.7208ZM3.3336 1.66667C2.41443 1.66667 1.66693 2.41417 1.66693 3.33333V13.3333C1.66693 14.2525 2.41443 15 3.3336 15H6.07443C6.2711 15 6.4611 15.0692 6.61193 15.1958L9.98443 18.0375L13.4594 15.1908C13.6094 15.0675 13.7969 15 13.9911 15H16.6678C17.5869 15 18.3344 14.2525 18.3344 13.3333V3.33333C18.3344 2.41417 17.5869 1.66667 16.6678 1.66667H3.3336Z" fill="black"/>
</svg>
