<svg width="33" height="32" viewBox="0 0 33 32" fill="none" xmlns="http://www.w3.org/2000/svg">
<g clip-path="url(#clip0_21_336)">
<path d="M16.5 32C25.6127 32 33 24.8366 33 16C33 7.16344 25.6127 0 16.5 0C7.3873 0 0 7.16344 0 16C0 24.8366 7.3873 32 16.5 32Z" fill="white"/>
<path d="M23.7517 14.02C24.0756 11.924 22.4287 10.797 20.1785 10.045L20.9086 7.205L19.1266 6.775L18.415 9.54C17.9468 9.426 17.4663 9.32 16.9867 9.214L17.7035 6.431L15.9215 6L15.1913 8.839C14.8036 8.753 14.422 8.669 14.0528 8.579L14.0549 8.57L11.5964 7.975L11.122 9.821C11.122 9.821 12.4451 10.115 12.4173 10.133C13.1392 10.308 13.2691 10.771 13.2474 11.139L12.4162 14.374C12.4657 14.386 12.5297 14.404 12.6019 14.431L12.4132 14.386L11.2478 18.918C11.1592 19.13 10.9354 19.449 10.4301 19.328C10.4486 19.353 9.13481 19.015 9.13481 19.015L8.25 20.993L10.5703 21.554C11.0014 21.659 11.4242 21.769 11.8398 21.872L11.1024 24.744L12.8834 25.174L13.6135 22.334C14.1003 22.461 14.5726 22.579 15.0346 22.691L14.3065 25.519L16.0885 25.949L16.8259 23.083C19.866 23.641 22.1512 23.416 23.1134 20.75C23.8889 18.604 23.0753 17.365 21.4758 16.558C22.6411 16.298 23.5177 15.555 23.7517 14.02ZM19.6783 19.558C19.1287 21.705 15.4007 20.544 14.1921 20.253L15.1718 16.448C16.3804 16.741 20.2548 17.32 19.6783 19.558ZM20.23 13.989C19.7278 15.942 16.6258 14.949 15.6203 14.706L16.5072 11.256C17.5127 11.499 20.7539 11.952 20.23 13.989Z" fill="#F7931A"/>
</g>
<defs>
<clipPath id="clip0_21_336">
<rect width="33" height="32" fill="white"/>
</clipPath>
</defs>
</svg>
