<svg width="33" height="32" viewBox="0 0 33 32" fill="none" xmlns="http://www.w3.org/2000/svg">
<g clip-path="url(#clip0_21_344)">
<path d="M16.5 32C25.6127 32 33 24.8366 33 16C33 7.16344 25.6127 0 16.5 0C7.3873 0 0 7.16344 0 16C0 24.8366 7.3873 32 16.5 32Z" fill="white"/>
<path fill-rule="evenodd" clip-rule="evenodd" d="M9.56691 8H16.3237C20.4332 8 23.5486 10.116 24.7077 13.194H26.8125V15.055H25.1512C25.1831 15.349 25.1996 15.649 25.1996 15.953V15.999C25.1996 16.341 25.179 16.679 25.1377 17.009H26.8125V18.869H24.6675C23.4785 21.905 20.3878 24 16.3247 24H9.56691V18.869H7.21875V17.009H9.56691V15.055H7.21875V13.195H9.56691V8ZM11.4551 18.869V22.331H16.3226C19.3277 22.331 21.5593 20.944 22.5978 18.869H11.4551ZM23.1763 17.009H11.4551V15.055H23.1804C23.2227 15.362 23.2454 15.677 23.2454 15.999V16.044C23.2454 16.373 23.2217 16.694 23.1763 17.008V17.009ZM16.3247 9.665C19.3421 9.665 21.581 11.089 22.6132 13.193H11.4551V9.666H16.3226L16.3247 9.665Z" fill="#F4B731"/>
</g>
<defs>
<clipPath id="clip0_21_344">
<rect width="33" height="32" fill="white"/>
</clipPath>
</defs>
</svg>
