<svg width="33" height="32" viewBox="0 0 33 32" fill="none" xmlns="http://www.w3.org/2000/svg">
<g clip-path="url(#clip0_21_352)">
<path d="M16.5 32C25.6127 32 33 24.8366 33 16C33 7.16344 25.6127 0 16.5 0C7.3873 0 0 7.16344 0 16C0 24.8366 7.3873 32 16.5 32Z" fill="white"/>
<path d="M16.5 4V12.87L24.2313 16.22L16.5 4Z" fill="#627EEA" fill-opacity="0.6"/>
<path d="M17.0136 4L9.28125 16.22L17.0136 12.87V4Z" fill="#627EEA"/>
<path d="M16.5 22.352V28.379L24.2364 18L16.5 22.352Z" fill="#627EEA" fill-opacity="0.6"/>
<path d="M17.0136 28.379V22.351L9.28125 18L17.0136 28.379Z" fill="#627EEA"/>
<path d="M16.5 20.701L24.2313 16.348L16.5 13V20.701Z" fill="#627EEA" fill-opacity="0.2"/>
<path d="M9.28125 16.348L17.0136 20.701V13L9.28125 16.348Z" fill="#627EEA" fill-opacity="0.6"/>
</g>
<defs>
<clipPath id="clip0_21_352">
<rect width="33" height="32" fill="white"/>
</clipPath>
</defs>
</svg>
