<svg width="62" height="69" viewBox="0 0 62 69" fill="none" xmlns="http://www.w3.org/2000/svg">
<path d="M43 53C42.4477 53 42 53.4477 42 54C42 54.5523 42.4477 55 43 55V53ZM59.9472 13.7236L60.3944 12.8292L60.3944 12.8292L59.9472 13.7236ZM49.9472 7.60557C49.4532 7.35858 48.8526 7.55881 48.6056 8.05279C48.3586 8.54676 48.5588 9.14744 49.0528 9.39443L49.9472 7.60557ZM38 63V64C38.5523 64 39 63.5523 39 63H38ZM6 63H5C5 63.5523 5.44772 64 6 64V63ZM7 37C7 36.4477 6.55228 36 6 36C5.44772 36 5 36.4477 5 37H7ZM39 37C39 36.4477 38.5523 36 38 36C37.4477 36 37 36.4477 37 37H39ZM43 68V69C43.5523 69 44 68.5523 44 68H43ZM1 68H0C0 68.5523 0.447715 69 1 69L1 68ZM38 50V49C37.4477 49 37 49.4477 37 50H38ZM38 58H37C37 58.5523 37.4477 59 38 59V58ZM17 6C16.4477 6 16 6.44772 16 7C16 7.55228 16.4477 8 17 8V6ZM27 8C27.5523 8 28 7.55228 28 7C28 6.44772 27.5523 6 27 6V8ZM19 57C18.4477 57 18 57.4477 18 58C18 58.5523 18.4477 59 19 59V57ZM25 59C25.5523 59 26 58.5523 26 58C26 57.4477 25.5523 57 25 57V59ZM14 28L13.2601 27.3273C12.9938 27.6202 12.9254 28.0426 13.0855 28.4046C13.2456 28.7665 13.6042 29 14 29V28ZM24 17H25C25 16.5869 24.7459 16.2163 24.3606 16.0673C23.9753 15.9183 23.538 16.0216 23.2601 16.3273L24 17ZM24 24H23C23 24.5523 23.4477 25 24 25V24ZM30 24L30.7399 24.6727C31.0062 24.3798 31.0746 23.9574 30.9145 23.5954C30.7544 23.2335 30.3958 23 30 23V24ZM20 35H19C19 35.4131 19.2541 35.7837 19.6394 35.9327C20.0247 36.0817 20.462 35.9784 20.7399 35.6727L20 35ZM20 28H21C21 27.4477 20.5523 27 20 27V28ZM43 55H54.5V53H43V55ZM61.5 48V29H59.5V48H61.5ZM61.5 29V19H59.5V29H61.5ZM61.5 19V14.618H59.5V19H61.5ZM60.5 28H57V30H60.5V28ZM60.3944 12.8292L55.4472 10.3556L54.5528 12.1444L59.5 14.618L60.3944 12.8292ZM55.4472 10.3556L49.9472 7.60557L49.0528 9.39443L54.5528 12.1444L55.4472 10.3556ZM56 27V16.25H54V27H56ZM56 16.25V11.25H54V16.25H56ZM60.9472 18.1056L55.4472 15.3556L54.5528 17.1444L60.0528 19.8944L60.9472 18.1056ZM57 28C56.4477 28 56 27.5523 56 27H54C54 28.6569 55.3431 30 57 30V28ZM61.5 14.618C61.5 13.8605 61.072 13.168 60.3944 12.8292L59.5 14.618L59.5 14.618H61.5ZM54.5 55C58.366 55 61.5 51.866 61.5 48H59.5C59.5 50.7614 57.2614 53 54.5 53V55ZM11 2H33V0H11V2ZM37 6V63H39V6H37ZM38 62H6V64H38V62ZM7 63V6H5V63H7ZM33 2C35.2091 2 37 3.79086 37 6H39C39 2.68629 36.3137 0 33 0V2ZM11 0C7.68629 0 5 2.68629 5 6H7C7 3.79086 8.79086 2 11 2V0ZM22 52C13.7157 52 7 45.2843 7 37H5C5 46.3888 12.6112 54 22 54V52ZM37 37C37 45.2843 30.2843 52 22 52V54C31.3888 54 39 46.3888 39 37H37ZM5 64H39V62H5V64ZM42 67V68H44V67H42ZM43 67H1V69H43V67ZM2 68V67H0V68H2ZM39 64C40.6569 64 42 65.3431 42 67H44C44 64.2386 41.7614 62 39 62V64ZM5 62C2.23858 62 0 64.2386 0 67H2C2 65.3431 3.34315 64 5 64V62ZM38 51H41V49H38V51ZM42 52V56H44V52H42ZM41 57H38V59H41V57ZM39 58V50H37V58H39ZM42 56C42 56.5523 41.5523 57 41 57V59C42.6569 59 44 57.6569 44 56H42ZM41 51C41.5523 51 42 51.4477 42 52H44C44 50.3431 42.6569 49 41 49V51ZM17 8H27V6H17V8ZM19 59H25V57H19V59ZM14.7399 28.6727L24.7399 17.6727L23.2601 16.3273L13.2601 27.3273L14.7399 28.6727ZM23 17V24H25V17H23ZM24 25H30V23H24V25ZM29.2601 23.3273L19.2601 34.3273L20.7399 35.6727L30.7399 24.6727L29.2601 23.3273ZM21 35V28H19V35H21ZM20 27H14V29H20V27Z" fill="black"/>
</svg>
