<svg width="30" height="22" viewBox="0 0 30 22" fill="none" xmlns="http://www.w3.org/2000/svg">
<path d="M19.6875 11C19.6875 12.2432 19.1936 13.4355 18.3146 14.3146C17.4355 15.1936 16.2432 15.6875 15 15.6875C13.7568 15.6875 12.5645 15.1936 11.6854 14.3146C10.8064 13.4355 10.3125 12.2432 10.3125 11C10.3125 9.7568 10.8064 8.56451 11.6854 7.68544C12.5645 6.80636 13.7568 6.3125 15 6.3125C16.2432 6.3125 17.4355 6.80636 18.3146 7.68544C19.1936 8.56451 19.6875 9.7568 19.6875 11Z" fill="#8B8B8B"/>
<path d="M0 11C0 11 5.625 0.6875 15 0.6875C24.375 0.6875 30 11 30 11C30 11 24.375 21.3125 15 21.3125C5.625 21.3125 0 11 0 11ZM15 17.5625C16.7405 17.5625 18.4097 16.8711 19.6404 15.6404C20.8711 14.4097 21.5625 12.7405 21.5625 11C21.5625 9.25952 20.8711 7.59032 19.6404 6.35961C18.4097 5.1289 16.7405 4.4375 15 4.4375C13.2595 4.4375 11.5903 5.1289 10.3596 6.35961C9.1289 7.59032 8.4375 9.25952 8.4375 11C8.4375 12.7405 9.1289 14.4097 10.3596 15.6404C11.5903 16.8711 13.2595 17.5625 15 17.5625Z" fill="#8B8B8B"/>
</svg>
