<svg width="33" height="32" viewBox="0 0 33 32" fill="none" xmlns="http://www.w3.org/2000/svg">
<g clip-path="url(#clip0_21_366)">
<path d="M16.5 32C25.6127 32 33 24.8366 33 16C33 7.16344 25.6127 0 16.5 0C7.3873 0 0 7.16344 0 16C0 24.8366 7.3873 32 16.5 32Z" fill="white"/>
<path fill-rule="evenodd" clip-rule="evenodd" d="M18.1727 17.564V17.562C18.0593 17.57 17.4745 17.604 16.17 17.604C15.1284 17.604 14.3952 17.574 14.1374 17.562V17.565C10.1279 17.394 7.13522 16.717 7.13522 15.907C7.13522 15.098 10.1279 14.421 14.1374 14.247V16.891C14.3993 16.909 15.1501 16.952 16.1875 16.952C17.4323 16.952 18.0562 16.902 18.1727 16.892V14.249C22.1739 14.422 25.1594 15.099 25.1594 15.907C25.1594 16.717 22.1739 17.392 18.1727 17.564ZM18.1727 13.974V11.608H23.7559V8H8.55422V11.608H14.1374V13.973C9.59991 14.175 6.1875 15.047 6.1875 16.091C6.1875 17.135 9.59991 18.006 14.1374 18.209V25.791H18.1727V18.207C22.703 18.005 26.1071 17.134 26.1071 16.091C26.1071 15.048 22.703 14.177 18.1727 13.974Z" fill="#26A17B"/>
</g>
<defs>
<clipPath id="clip0_21_366">
<rect width="33" height="32" fill="white"/>
</clipPath>
</defs>
</svg>
